# xmcd
#
# Track frame offsets:
#	150
#	20022
#	35648
#	53551
#	72547
#	81762
#	101655
#	122837
#	145716
#	166470
#
# Disc length: 2638 seconds
#
# Revision: 0
# Processed by: cddbd v1.5.1PL0 Copyright (c) Steve Scherf et al.
# Submitted via: dBpowerAMP V4.0
#
DISCID=890a4c0a
DTITLE=Tracy Chapman - Crossroads
DYEAR=1989
DGENRE=Easy Listening
TTITLE0=Crossroads
TTITLE1=Bridges
TTITLE2=Freedom now
TTITLE3=Material world
TTITLE4=Be careful of my heart
TTITLE5=Subcity
TTITLE6=Born to fight
TTITLE7=A hundred years
TTITLE8=This time
TTITLE9=All that you have is your soul
EXTD=
EXTT0=
EXTT1=
EXTT2=
EXTT3=
EXTT4=
EXTT5=
EXTT6=
EXTT7=
EXTT8=
EXTT9=
PLAYORDER=
